<?xml version="1.0" standalone="no"?><!DOCTYPE svg PUBLIC "-//W3C//DTD SVG 1.1//EN" "http://www.w3.org/Graphics/SVG/1.1/DTD/svg11.dtd"><svg t="1605180683534" class="icon" viewBox="0 0 1024 1024" version="1.1" xmlns="http://www.w3.org/2000/svg" p-id="3634" xmlns:xlink="http://www.w3.org/1999/xlink" width="200" height="200"><defs><style type="text/css"></style></defs><path d="M1008 992H16a16 16 0 0 1-16-16V464c0-61.76 50.24-112 112-112h800c61.76 0 112 50.24 112 112v512a16 16 0 0 1-16 16zM32 960h960V464c0-44.112-35.888-80-80-80H112c-44.112 0-80 35.888-80 80v496z" fill="#ffffff" p-id="3635"></path><path d="M160 384a16 16 0 0 1-16-16v-144a16 16 0 0 1 32 0v144a16 16 0 0 1-16 16z" fill="#ffffff" p-id="3636"></path><path d="M160 240c-35.296 0-64-28.704-64-64 0-29.216 41.68-104.96 50.048-119.84 5.664-10.08 22.24-10.08 27.904 0C182.32 71.04 224 146.784 224 176c0 35.296-28.704 64-64 64z m0-142.208C142.88 131.04 128 165.12 128 176c0 17.648 14.352 32 32 32s32-14.352 32-32c0-10.88-14.88-44.96-32-78.208zM384 384a16 16 0 0 1-16-16v-144a16 16 0 0 1 32 0v144a16 16 0 0 1-16 16z" fill="#ffffff" p-id="3637"></path><path d="M384 240c-35.296 0-64-28.704-64-64 0-29.216 41.68-104.96 50.048-119.84 5.664-10.08 22.24-10.08 27.904 0C406.32 71.04 448 146.784 448 176c0 35.296-28.704 64-64 64z m0-142.208C366.88 131.04 352 165.12 352 176c0 17.648 14.352 32 32 32s32-14.352 32-32c0-10.88-14.88-44.96-32-78.208zM608 384a16 16 0 0 1-16-16v-144a16 16 0 0 1 32 0v144a16 16 0 0 1-16 16z" fill="#ffffff" p-id="3638"></path><path d="M608 240c-35.296 0-64-28.704-64-64 0-29.216 41.68-104.96 50.048-119.84 5.664-10.08 22.24-10.08 27.904 0C630.32 71.04 672 146.784 672 176c0 35.296-28.704 64-64 64z m0-142.208C590.88 131.04 576 165.12 576 176c0 17.648 14.352 32 32 32s32-14.352 32-32c0-10.88-14.88-44.96-32-78.208zM832 384a16 16 0 0 1-16-16v-144a16 16 0 0 1 32 0v144a16 16 0 0 1-16 16z" fill="#ffffff" p-id="3639"></path><path d="M832 240c-35.296 0-64-28.704-64-64 0-29.216 41.68-104.96 50.048-119.84 5.664-10.08 22.24-10.08 27.904 0C854.32 71.04 896 146.784 896 176c0 35.296-28.704 64-64 64z m0-142.208C814.88 131.04 800 165.12 800 176c0 17.648 14.352 32 32 32s32-14.352 32-32c0-10.88-14.88-44.96-32-78.208zM1008 800H16a16 16 0 0 1 0-32h992a16 16 0 0 1 0 32zM368 896H16a16 16 0 0 1 0-32h352a16 16 0 0 1 0 32zM432 896c-4.16 0-8.32-1.76-11.36-4.64-2.88-3.04-4.64-7.2-4.64-11.36 0-4.32 1.76-8.32 4.64-11.36 5.92-5.92 16.64-5.92 22.72 0 2.88 3.04 4.64 7.2 4.64 11.36 0 4.16-1.76 8.32-4.64 11.36-3.04 2.88-7.2 4.64-11.36 4.64zM496 896c-4.16 0-8.32-1.76-11.36-4.64-2.88-3.04-4.64-7.04-4.64-11.36s1.76-8.32 4.64-11.36c5.92-5.92 16.8-5.92 22.72 0 2.88 3.04 4.64 7.04 4.64 11.36s-1.76 8.32-4.64 11.36c-3.04 2.88-7.2 4.64-11.36 4.64zM560 896c-4.16 0-8.32-1.76-11.36-4.64-2.88-3.04-4.64-7.2-4.64-11.36 0-4.16 1.76-8.32 4.64-11.36 6.08-5.92 16.8-5.92 22.72 0 2.88 3.04 4.64 7.2 4.64 11.36 0 4.16-1.76 8.32-4.64 11.36-3.04 2.88-7.04 4.64-11.36 4.64zM624 896c-4.16 0-8.32-1.76-11.36-4.64-2.88-3.04-4.64-7.2-4.64-11.36 0-4.16 1.76-8.32 4.64-11.36 6.08-5.92 16.8-5.92 22.72 0 2.88 3.04 4.64 7.2 4.64 11.36 0 4.16-1.76 8.32-4.64 11.36-3.04 2.88-7.2 4.64-11.36 4.64zM362.848 528a15.936 15.936 0 0 1-8.672-2.56l-40.864-26.4-40.912 26.4a15.984 15.984 0 0 1-17.36 0l-40.848-26.4-40.8 26.4a15.968 15.968 0 0 1-17.376 0l-40.864-26.4-40.896 26.4c-5.28 3.408-12.08 3.408-17.36 0l-49.568-32a16 16 0 0 1 17.344-26.88l40.896 26.4 40.896-26.4a16 16 0 0 1 17.36 0l40.864 26.4 40.816-26.4a15.968 15.968 0 0 1 17.376 0l40.848 26.4 40.928-26.4a15.984 15.984 0 0 1 17.344 0l40.864 26.4 40.912-26.4a16 16 0 0 1 17.344 0l40.896 26.4 40.944-26.4a16 16 0 0 1 17.344 0l40.912 26.4 40.928-26.4a16 16 0 0 1 17.344 0l40.96 26.4 40.96-26.4a16 16 0 0 1 17.344 0l40.896 26.4 40.96-26.4a16 16 0 0 1 17.328 0l40.96 26.4 40.976-26.4a16 16 0 0 1 17.328 0l41.072 26.416 41.072-26.432a15.984 15.984 0 1 1 17.312 26.912l-49.728 32a16 16 0 0 1-17.312 0l-41.056-26.432-40.992 26.416a16 16 0 0 1-17.344 0l-40.96-26.4-40.96 26.4a16 16 0 0 1-17.344 0l-40.896-26.4-40.96 26.4a16 16 0 0 1-17.328 0l-40.96-26.4-40.928 26.4a16 16 0 0 1-17.344 0l-40.912-26.4-40.944 26.4a16 16 0 0 1-17.344 0l-40.896-26.4-40.928 26.4a15.984 15.984 0 0 1-8.672 2.56zM362.848 672a15.936 15.936 0 0 1-8.672-2.56l-40.864-26.4-40.912 26.4a15.984 15.984 0 0 1-17.36 0l-40.848-26.4-40.8 26.4a15.968 15.968 0 0 1-17.376 0l-40.864-26.4-40.896 26.4c-5.28 3.408-12.08 3.408-17.36 0l-49.568-32a16 16 0 0 1 17.344-26.88l40.896 26.4 40.896-26.4a16 16 0 0 1 17.36 0l40.864 26.4 40.816-26.4a15.968 15.968 0 0 1 17.376 0l40.848 26.4 40.928-26.4a15.984 15.984 0 0 1 17.344 0l40.864 26.4 40.912-26.4a16 16 0 0 1 17.344 0l40.896 26.4 40.944-26.4a16 16 0 0 1 17.344 0l40.912 26.4 40.928-26.4a16 16 0 0 1 17.344 0l40.96 26.4 40.96-26.4a16 16 0 0 1 17.344 0l40.896 26.4 40.96-26.4a16 16 0 0 1 17.328 0l40.96 26.4 40.976-26.4a16 16 0 0 1 17.328 0l41.072 26.416 41.072-26.432a15.984 15.984 0 1 1 17.312 26.912l-49.728 32a16 16 0 0 1-17.312 0l-41.056-26.432-40.992 26.416a16 16 0 0 1-17.344 0l-40.96-26.4-40.96 26.4a16 16 0 0 1-17.344 0l-40.896-26.4-40.96 26.4a16 16 0 0 1-17.328 0l-40.96-26.4-40.928 26.4a16 16 0 0 1-17.344 0l-40.912-26.4-40.944 26.4a16 16 0 0 1-17.344 0l-40.896-26.4-40.928 26.4a15.984 15.984 0 0 1-8.672 2.56z" fill="#ffffff" p-id="3640"></path></svg>