<?xml version="1.0" standalone="no"?><!DOCTYPE svg PUBLIC "-//W3C//DTD SVG 1.1//EN" "http://www.w3.org/Graphics/SVG/1.1/DTD/svg11.dtd"><svg t="1605109402748" class="icon" viewBox="0 0 1024 1024" version="1.1" xmlns="http://www.w3.org/2000/svg" p-id="8683" xmlns:xlink="http://www.w3.org/1999/xlink" width="200" height="200"><defs><style type="text/css"></style></defs><path d="M998.001379 20.724048A71.948173 71.948173 0 0 0 947.313391 0.000244a74.288744 74.288744 0 0 0-29.598469 6.339046L46.82751 398.87253a73.386649 73.386649 0 0 0-42.642276 73.386649 72.533316 72.533316 0 0 0 54.930273 64.365699l346.623917 86.064741 108.860927 350.110393a72.850268 72.850268 0 0 0 65.828556 51.199988h3.340189a72.484554 72.484554 0 0 0 66.95008-44.860942l363.495532-877.714076a73.776744 73.776744 0 0 0-16.213329-80.700934zM583.86662 950.85716L462.766458 561.493443 76.45036 465.676323 947.337772 73.143084z" p-id="8684" fill="#ffffff"></path></svg>