<?xml version="1.0" standalone="no"?><!DOCTYPE svg PUBLIC "-//W3C//DTD SVG 1.1//EN" "http://www.w3.org/Graphics/SVG/1.1/DTD/svg11.dtd"><svg t="1605109110087" class="icon" viewBox="0 0 1024 1024" version="1.1" xmlns="http://www.w3.org/2000/svg" p-id="4940" xmlns:xlink="http://www.w3.org/1999/xlink" width="200" height="200"><defs><style type="text/css"></style></defs><path d="M910.279111 625.777778a56.888889 56.888889 0 0 0-56.888889 56.888889v142.222222a28.444444 28.444444 0 0 1-28.444444 28.444444H199.054222a28.444444 28.444444 0 0 1-28.444444-28.444444v-625.777778a28.444444 28.444444 0 0 1 28.444444-28.444444h142.222222a56.888889 56.888889 0 1 0 0-113.777778h-227.555555a56.888889 56.888889 0 0 0-56.888889 56.888889v796.444444a56.888889 56.888889 0 0 0 56.888889 56.888889h796.558222a56.888889 56.888889 0 0 0 56.888889-56.888889v-227.555555a56.888889 56.888889 0 0 0-56.888889-56.888889z" fill="#ffffff" p-id="4941"></path><path d="M749.169778 193.592889l81.294222 81.294222L492.088889 625.777778H398.222222V531.911111l350.947556-338.318222zM749.909333 56.888889a56.547556 56.547556 0 0 0-40.163555 16.611555L284.444444 483.555556V739.555556h256.056889l410.112-425.244445a56.718222 56.718222 0 0 0 0-80.270222l-160.540444-160.540445A56.433778 56.433778 0 0 0 749.966222 56.888889z" fill="#ffffff" p-id="4942"></path></svg>